<svg width="193" height="138" viewBox="0 0 193 138" fill="none" xmlns="http://www.w3.org/2000/svg">
<path d="M13.7264 121.285V103.265L85.5669 18.0195H13.7264V0H109.177V18.0195L37.3359 103.265H109.177V121.285H13.7264ZM112.473 121.285V0H182.037V18.0195H130.012V47.3011H173.943V65.3206H130.012V121.285H112.473ZM176.031 123.537C173.445 123.537 171.252 122.613 169.454 120.765C167.711 118.917 166.84 116.665 166.84 114.008C166.84 111.409 167.711 109.185 169.454 107.337C171.252 105.489 173.445 104.565 176.031 104.565C178.616 104.565 180.808 105.489 182.608 107.337C184.406 109.185 185.306 111.409 185.306 114.008C185.306 116.665 184.406 118.917 182.608 120.765C180.808 122.613 178.616 123.537 176.031 123.537Z" fill="black"/>
<path d="M0 130.4H192.169V137.264H0V130.4Z" fill="black"/>
</svg>
